<svg width="23" height="23" viewBox="0 0 23 23" fill="none" xmlns="http://www.w3.org/2000/svg">
<mask id="path-1-inside-1_19_162" fill="white">
<path fill-rule="evenodd" clip-rule="evenodd" d="M21.508 1.99038H18.6434C18.1971 0.826509 17.0668 0 15.743 0C14.4191 0 13.2889 0.826509 12.8426 1.99038H1.10866C0.496364 1.99038 0 2.48545 0 3.09615C0 3.70685 0.496364 4.20192 1.10866 4.20192H12.8426C13.2889 5.3658 14.4191 6.19231 15.743 6.19231C17.0668 6.19231 18.1971 5.3658 18.6434 4.20192H21.508C22.1203 4.20192 22.6167 3.70685 22.6167 3.09615C22.6167 2.48545 22.1203 1.99038 21.508 1.99038ZM1.10866 10.4574C0.496364 10.4574 0 10.9525 0 11.5632C0 12.1739 0.496364 12.6689 1.10866 12.6689H2.96848C3.29627 14.0283 4.52325 15.0385 5.98676 15.0385C7.45028 15.0385 8.67725 14.0283 9.00505 12.6689H21.508C22.1203 12.6689 22.6167 12.1739 22.6167 11.5632C22.6167 10.9525 22.1203 10.4574 21.508 10.4574H8.71137C8.18423 9.49723 7.16173 8.84615 5.98676 8.84615C4.8118 8.84615 3.7893 9.49723 3.26216 10.4574H1.10866ZM1.10866 18.7981C0.496364 18.7981 0 19.2931 0 19.9038C0 20.5145 0.496364 21.0096 1.10866 21.0096H12.8426C13.2889 22.1735 14.4191 23 15.743 23C17.0668 23 18.1971 22.1735 18.6434 21.0096H21.508C22.1203 21.0096 22.6167 20.5145 22.6167 19.9038C22.6167 19.2931 22.1203 18.7981 21.508 18.7981H18.6434C18.1971 17.6342 17.0668 16.8077 15.743 16.8077C14.4191 16.8077 13.2889 17.6342 12.8426 18.7981H1.10866ZM15.7167 4.98333C16.7752 4.98333 17.6333 4.12521 17.6333 3.06666C17.6333 2.00811 16.7752 1.14999 15.7167 1.14999C14.6581 1.14999 13.8 2.00811 13.8 3.06666C13.8 4.12521 14.6581 4.98333 15.7167 4.98333ZM7.89669 11.9983C7.89669 13.0569 7.03857 13.915 5.98002 13.915C4.92147 13.915 4.06335 13.0569 4.06335 11.9983C4.06335 10.9398 4.92147 10.0817 5.98002 10.0817C7.03857 10.0817 7.89669 10.9398 7.89669 11.9983ZM15.7167 21.85C16.7752 21.85 17.6333 20.9919 17.6333 19.9334C17.6333 18.8748 16.7752 18.0167 15.7167 18.0167C14.6581 18.0167 13.8 18.8748 13.8 19.9334C13.8 20.9919 14.6581 21.85 15.7167 21.85Z"/>
</mask>
<path fill-rule="evenodd" clip-rule="evenodd" d="M21.508 1.99038H18.6434C18.1971 0.826509 17.0668 0 15.743 0C14.4191 0 13.2889 0.826509 12.8426 1.99038H1.10866C0.496364 1.99038 0 2.48545 0 3.09615C0 3.70685 0.496364 4.20192 1.10866 4.20192H12.8426C13.2889 5.3658 14.4191 6.19231 15.743 6.19231C17.0668 6.19231 18.1971 5.3658 18.6434 4.20192H21.508C22.1203 4.20192 22.6167 3.70685 22.6167 3.09615C22.6167 2.48545 22.1203 1.99038 21.508 1.99038ZM1.10866 10.4574C0.496364 10.4574 0 10.9525 0 11.5632C0 12.1739 0.496364 12.6689 1.10866 12.6689H2.96848C3.29627 14.0283 4.52325 15.0385 5.98676 15.0385C7.45028 15.0385 8.67725 14.0283 9.00505 12.6689H21.508C22.1203 12.6689 22.6167 12.1739 22.6167 11.5632C22.6167 10.9525 22.1203 10.4574 21.508 10.4574H8.71137C8.18423 9.49723 7.16173 8.84615 5.98676 8.84615C4.8118 8.84615 3.7893 9.49723 3.26216 10.4574H1.10866ZM1.10866 18.7981C0.496364 18.7981 0 19.2931 0 19.9038C0 20.5145 0.496364 21.0096 1.10866 21.0096H12.8426C13.2889 22.1735 14.4191 23 15.743 23C17.0668 23 18.1971 22.1735 18.6434 21.0096H21.508C22.1203 21.0096 22.6167 20.5145 22.6167 19.9038C22.6167 19.2931 22.1203 18.7981 21.508 18.7981H18.6434C18.1971 17.6342 17.0668 16.8077 15.743 16.8077C14.4191 16.8077 13.2889 17.6342 12.8426 18.7981H1.10866ZM15.7167 4.98333C16.7752 4.98333 17.6333 4.12521 17.6333 3.06666C17.6333 2.00811 16.7752 1.14999 15.7167 1.14999C14.6581 1.14999 13.8 2.00811 13.8 3.06666C13.8 4.12521 14.6581 4.98333 15.7167 4.98333ZM7.89669 11.9983C7.89669 13.0569 7.03857 13.915 5.98002 13.915C4.92147 13.915 4.06335 13.0569 4.06335 11.9983C4.06335 10.9398 4.92147 10.0817 5.98002 10.0817C7.03857 10.0817 7.89669 10.9398 7.89669 11.9983ZM15.7167 21.85C16.7752 21.85 17.6333 20.9919 17.6333 19.9334C17.6333 18.8748 16.7752 18.0167 15.7167 18.0167C14.6581 18.0167 13.8 18.8748 13.8 19.9334C13.8 20.9919 14.6581 21.85 15.7167 21.85Z" fill="#387DEF"/>
<path d="M18.6434 1.99038L17.2428 2.52746L17.6121 3.49038H18.6434V1.99038ZM12.8426 1.99038V3.49038H13.8739L14.2431 2.52746L12.8426 1.99038ZM12.8426 4.20192L14.2431 3.66485L13.8739 2.70192H12.8426V4.20192ZM18.6434 4.20192V2.70192H17.6121L17.2428 3.66485L18.6434 4.20192ZM2.96848 12.6689L4.42669 12.3173L4.14977 11.1689H2.96848V12.6689ZM9.00505 12.6689V11.1689H7.82375L7.54684 12.3173L9.00505 12.6689ZM8.71137 10.4574L7.3965 11.1793L7.8237 11.9574H8.71137V10.4574ZM3.26216 10.4574V11.9574H4.14983L4.57703 11.1793L3.26216 10.4574ZM12.8426 21.0096L14.2431 20.4725L13.8739 19.5096H12.8426V21.0096ZM18.6434 21.0096V19.5096H17.6121L17.2428 20.4725L18.6434 21.0096ZM18.6434 18.7981L17.2428 19.3351L17.6121 20.2981H18.6434V18.7981ZM12.8426 18.7981V20.2981H13.8739L14.2431 19.3351L12.8426 18.7981ZM18.6434 3.49038H21.508V0.490385H18.6434V3.49038ZM15.743 1.5C16.4271 1.5 17.0123 1.92617 17.2428 2.52746L20.0439 1.45331C19.3819 -0.27315 17.7065 -1.5 15.743 -1.5V1.5ZM14.2431 2.52746C14.4737 1.92617 15.0588 1.5 15.743 1.5V-1.5C13.7795 -1.5 12.104 -0.27315 11.442 1.45331L14.2431 2.52746ZM1.10866 3.49038H12.8426V0.490385H1.10866V3.49038ZM1.5 3.09615C1.5 3.31757 1.3211 3.49038 1.10866 3.49038V0.490385C-0.328368 0.490385 -1.5 1.65334 -1.5 3.09615H1.5ZM1.10866 2.70192C1.3211 2.70192 1.5 2.87474 1.5 3.09615H-1.5C-1.5 4.53897 -0.328368 5.70192 1.10866 5.70192V2.70192ZM12.8426 2.70192H1.10866V5.70192H12.8426V2.70192ZM15.743 4.69231C15.0588 4.69231 14.4737 4.26614 14.2431 3.66485L11.442 4.73899C12.104 6.46546 13.7795 7.69231 15.743 7.69231V4.69231ZM17.2428 3.66485C17.0123 4.26614 16.4271 4.69231 15.743 4.69231V7.69231C17.7065 7.69231 19.3819 6.46546 20.0439 4.73899L17.2428 3.66485ZM21.508 2.70192H18.6434V5.70192H21.508V2.70192ZM21.1167 3.09615C21.1167 2.87473 21.2956 2.70192 21.508 2.70192V5.70192C22.945 5.70192 24.1167 4.53897 24.1167 3.09615H21.1167ZM21.508 3.49038C21.2956 3.49038 21.1167 3.31757 21.1167 3.09615H24.1167C24.1167 1.65334 22.945 0.490385 21.508 0.490385V3.49038ZM1.5 11.5632C1.5 11.7846 1.3211 11.9574 1.10866 11.9574V8.9574C-0.328368 8.9574 -1.5 10.1204 -1.5 11.5632H1.5ZM1.10866 11.1689C1.3211 11.1689 1.5 11.3418 1.5 11.5632H-1.5C-1.5 13.006 -0.328368 14.1689 1.10866 14.1689V11.1689ZM2.96848 11.1689H1.10866V14.1689H2.96848V11.1689ZM5.98676 13.5385C5.2296 13.5385 4.59519 13.0161 4.42669 12.3173L1.51028 13.0206C1.99736 15.0405 3.81689 16.5385 5.98676 16.5385V13.5385ZM7.54684 12.3173C7.37834 13.0161 6.74393 13.5385 5.98676 13.5385V16.5385C8.15664 16.5385 9.97617 15.0405 10.4633 13.0206L7.54684 12.3173ZM21.508 11.1689H9.00505V14.1689H21.508V11.1689ZM21.1167 11.5632C21.1167 11.3418 21.2956 11.1689 21.508 11.1689V14.1689C22.945 14.1689 24.1167 13.006 24.1167 11.5632H21.1167ZM21.508 11.9574C21.2956 11.9574 21.1167 11.7846 21.1167 11.5632H24.1167C24.1167 10.1204 22.945 8.9574 21.508 8.9574V11.9574ZM8.71137 11.9574H21.508V8.9574H8.71137V11.9574ZM5.98676 10.3462C6.59394 10.3462 7.12288 10.6809 7.3965 11.1793L10.0262 9.73552C9.24558 8.31357 7.72952 7.34615 5.98676 7.34615V10.3462ZM4.57703 11.1793C4.85065 10.6809 5.37959 10.3462 5.98676 10.3462V7.34615C4.24401 7.34615 2.72795 8.31357 1.94729 9.73552L4.57703 11.1793ZM1.10866 11.9574H3.26216V8.9574H1.10866V11.9574ZM1.5 19.9038C1.5 20.1253 1.3211 20.2981 1.10866 20.2981V17.2981C-0.328367 17.2981 -1.5 18.461 -1.5 19.9038H1.5ZM1.10866 19.5096C1.3211 19.5096 1.5 19.6824 1.5 19.9038H-1.5C-1.5 21.3467 -0.328369 22.5096 1.10866 22.5096V19.5096ZM12.8426 19.5096H1.10866V22.5096H12.8426V19.5096ZM15.743 21.5C15.0588 21.5 14.4737 21.0738 14.2431 20.4725L11.442 21.5467C12.104 23.2731 13.7795 24.5 15.743 24.5V21.5ZM17.2428 20.4725C17.0123 21.0738 16.4271 21.5 15.743 21.5V24.5C17.7065 24.5 19.3819 23.2731 20.0439 21.5467L17.2428 20.4725ZM21.508 19.5096H18.6434V22.5096H21.508V19.5096ZM21.1167 19.9038C21.1167 19.6824 21.2956 19.5096 21.508 19.5096V22.5096C22.945 22.5096 24.1167 21.3467 24.1167 19.9038H21.1167ZM21.508 20.2981C21.2956 20.2981 21.1167 20.1253 21.1167 19.9038H24.1167C24.1167 18.461 22.945 17.2981 21.508 17.2981V20.2981ZM18.6434 20.2981H21.508V17.2981H18.6434V20.2981ZM15.743 18.3077C16.4271 18.3077 17.0123 18.7339 17.2428 19.3351L20.0439 18.261C19.3819 16.5345 17.7065 15.3077 15.743 15.3077V18.3077ZM14.2431 19.3351C14.4737 18.7339 15.0588 18.3077 15.743 18.3077V15.3077C13.7795 15.3077 12.104 16.5345 11.442 18.261L14.2431 19.3351ZM1.10866 20.2981H12.8426V17.2981H1.10866V20.2981ZM16.1333 3.06666C16.1333 3.29678 15.9468 3.48333 15.7167 3.48333V6.48333C17.6036 6.48333 19.1333 4.95363 19.1333 3.06666H16.1333ZM15.7167 2.64999C15.9468 2.64999 16.1333 2.83654 16.1333 3.06666H19.1333C19.1333 1.17969 17.6036 -0.350007 15.7167 -0.350007V2.64999ZM15.3 3.06666C15.3 2.83654 15.4866 2.64999 15.7167 2.64999V-0.350007C13.8297 -0.350007 12.3 1.17969 12.3 3.06666H15.3ZM15.7167 3.48333C15.4866 3.48333 15.3 3.29678 15.3 3.06666H12.3C12.3 4.95363 13.8297 6.48333 15.7167 6.48333V3.48333ZM5.98002 15.415C7.86699 15.415 9.39669 13.8853 9.39669 11.9983H6.39669C6.39669 12.2285 6.21014 12.415 5.98002 12.415V15.415ZM2.56335 11.9983C2.56335 13.8853 4.09305 15.415 5.98002 15.415V12.415C5.7499 12.415 5.56335 12.2285 5.56335 11.9983H2.56335ZM5.98002 8.58167C4.09305 8.58167 2.56335 10.1114 2.56335 11.9983H5.56335C5.56335 11.7682 5.7499 11.5817 5.98002 11.5817V8.58167ZM9.39669 11.9983C9.39669 10.1114 7.86699 8.58167 5.98002 8.58167V11.5817C6.21014 11.5817 6.39669 11.7682 6.39669 11.9983H9.39669ZM16.1333 19.9334C16.1333 20.1635 15.9468 20.35 15.7167 20.35V23.35C17.6036 23.35 19.1333 21.8203 19.1333 19.9334H16.1333ZM15.7167 19.5167C15.9468 19.5167 16.1333 19.7032 16.1333 19.9334H19.1333C19.1333 18.0464 17.6036 16.5167 15.7167 16.5167V19.5167ZM15.3 19.9334C15.3 19.7032 15.4866 19.5167 15.7167 19.5167V16.5167C13.8297 16.5167 12.3 18.0464 12.3 19.9334H15.3ZM15.7167 20.35C15.4866 20.35 15.3 20.1635 15.3 19.9334H12.3C12.3 21.8203 13.8297 23.35 15.7167 23.35V20.35Z" fill="#387DEF" mask="url(#path-1-inside-1_19_162)"/>
</svg>
