<svg width="24" height="24" viewBox="0 0 24 24" fill="none" xmlns="http://www.w3.org/2000/svg">
<circle cx="12" cy="12" r="10.75" stroke="#387DEF" stroke-width="2.5"/>
<path d="M12.9366 8.865C13.1072 8.865 13.2276 8.90902 13.2978 8.99707C13.3731 9.07924 13.4108 9.2201 13.4108 9.41966V15.1952H15.5258C15.6462 15.1952 15.7391 15.2216 15.8043 15.2744C15.8695 15.3214 15.9172 15.4094 15.9473 15.5385C15.9824 15.6676 16 15.8555 16 16.102C16 16.3485 15.9824 16.5363 15.9473 16.6654C15.9172 16.7946 15.8695 16.8826 15.8043 16.9296C15.7391 16.9765 15.6462 17 15.5258 17H9.47419C9.35376 17 9.26093 16.9765 9.1957 16.9296C9.13047 16.8826 9.08029 16.7946 9.04516 16.6654C9.01505 16.5363 9 16.3485 9 16.102C9 15.8555 9.01505 15.6676 9.04516 15.5385C9.08029 15.4094 9.13047 15.3214 9.1957 15.2744C9.26093 15.2216 9.35376 15.1952 9.47419 15.1952H11.529V10.6698H9.92581C9.80538 10.6698 9.71254 10.6464 9.64731 10.5994C9.58208 10.5525 9.5319 10.4644 9.49677 10.3353C9.46667 10.2062 9.45161 10.0183 9.45161 9.77183C9.45161 9.52531 9.46667 9.33749 9.49677 9.20836C9.5319 9.07924 9.58208 8.9912 9.64731 8.94424C9.71254 8.89142 9.80538 8.865 9.92581 8.865H12.9366ZM12.4473 5C12.8036 5 13.052 5.04402 13.1925 5.13206C13.338 5.21423 13.4108 5.3551 13.4108 5.55466V6.99853C13.4108 7.19809 13.343 7.34189 13.2075 7.42993C13.0771 7.51211 12.8362 7.55319 12.4849 7.55319C12.1337 7.55319 11.8853 7.51211 11.7398 7.42993C11.5993 7.34189 11.529 7.19809 11.529 6.99853V5.55466C11.529 5.34923 11.5943 5.20543 11.7247 5.12326C11.8552 5.04109 12.0961 5 12.4473 5Z" fill="#387DEF"/>
</svg>
